<?xml version="1.0" encoding="UTF-8" standalone="no"?>
<!-- Generator: Adobe Illustrator 16.2.1, SVG Export Plug-In . SVG Version: 6.00 Build 0)  -->

<svg
   xmlns:dc="http://purl.org/dc/elements/1.1/"
   xmlns:cc="http://creativecommons.org/ns#"
   xmlns:rdf="http://www.w3.org/1999/02/22-rdf-syntax-ns#"
   xmlns:svg="http://www.w3.org/2000/svg"
   xmlns="http://www.w3.org/2000/svg"
   xmlns:sodipodi="http://sodipodi.sourceforge.net/DTD/sodipodi-0.dtd"
   xmlns:inkscape="http://www.inkscape.org/namespaces/inkscape"
   version="1.1"
   id="Layer_1"
   x="0px"
   y="0px"
   width="512px"
   height="512px"
   viewBox="0 0 512 512"
   style="enable-background:new 0 0 512 512;"
   xml:space="preserve"
   inkscape:version="0.91 r13725"
   sodipodi:docname="load.svg"><metadata
     id="metadata33"><rdf:RDF><cc:Work
         rdf:about=""><dc:format>image/svg+xml</dc:format><dc:type
           rdf:resource="http://purl.org/dc/dcmitype/StillImage" /></cc:Work></rdf:RDF></metadata><defs
     id="defs31" /><sodipodi:namedview
     pagecolor="#ffffff"
     bordercolor="#666666"
     borderopacity="1"
     objecttolerance="10"
     gridtolerance="10"
     guidetolerance="10"
     inkscape:pageopacity="0"
     inkscape:pageshadow="2"
     inkscape:window-width="691"
     inkscape:window-height="480"
     id="namedview29"
     showgrid="false"
     inkscape:zoom="0.4609375"
     inkscape:cx="256"
     inkscape:cy="256"
     inkscape:window-x="0"
     inkscape:window-y="0"
     inkscape:window-maximized="0"
     inkscape:current-layer="Layer_1" /><g
     id="g3"
     style="fill:#005dc2;fill-opacity:1"><path
       d="M432,240h-80c-8.8,0-16,7.2-16,16s7.2,16,16,16h80c8.8,0,16-7.2,16-16S440.8,240,432,240z"
       id="path5"
       style="fill:#005dc2;fill-opacity:1" /><path
       d="M176,256c0-8.8-7.2-16-16-16H80c-8.8,0-16,7.2-16,16s7.2,16,16,16h80C168.8,272,176,264.8,176,256z"
       id="path7"
       style="fill:#005dc2;fill-opacity:1" /><path
       d="M256,336c-8.8,0-16,7.2-16,16v80c0,8.8,7.2,16,16,16s16-7.2,16-16v-80C272,343.2,264.8,336,256,336z"
       id="path9"
       style="fill:#005dc2;fill-opacity:1" /><path
       d="M256,64c-8.8,0-16,7.2-16,16v80c0,8.8,7.2,16,16,16s16-7.2,16-16V80C272,71.2,264.8,64,256,64z"
       id="path11"
       style="fill:#005dc2;fill-opacity:1" /><path
       d="M325.3,216c4.4,7.7,14.2,10.3,21.9,5.9l69.3-40c7.7-4.4,10.3-14.2,5.9-21.9s-14.2-10.3-21.9-5.9l-69.3,40   C323.5,198.6,320.9,208.3,325.3,216z"
       id="path13"
       style="fill:#005dc2;fill-opacity:1" /><path
       d="M186.7,296c-4.4-7.7-14.2-10.3-21.9-5.9l-69.3,40c-7.7,4.4-10.3,14.2-5.9,21.9s14.2,10.3,21.9,5.9l69.3-40   C188.5,313.4,191.1,303.7,186.7,296z"
       id="path15"
       style="fill:#005dc2;fill-opacity:1" /><path
       d="M317.9,331.1c-4.4-7.7-14.2-10.3-21.9-5.9s-10.3,14.2-5.9,21.9l40,69.3c4.4,7.7,14.2,10.3,21.9,5.9   c7.7-4.4,10.3-14.2,5.9-21.9L317.9,331.1z"
       id="path17"
       style="fill:#005dc2;fill-opacity:1" /><path
       d="M181.9,95.6c-4.4-7.7-14.2-10.3-21.9-5.9c-7.7,4.4-10.3,14.2-5.9,21.9l40,69.3c4.4,7.7,14.2,10.3,21.9,5.9   s10.3-14.2,5.9-21.9L181.9,95.6z"
       id="path19"
       style="fill:#005dc2;fill-opacity:1" /><path
       d="M296,186.7c7.7,4.4,17.4,1.8,21.9-5.9l40-69.3c4.4-7.7,1.8-17.4-5.9-21.9c-7.7-4.4-17.4-1.8-21.9,5.9l-40,69.3   C285.7,172.5,288.3,182.3,296,186.7z"
       id="path21"
       style="fill:#005dc2;fill-opacity:1" /><path
       d="M216,325.3c-7.7-4.4-17.4-1.8-21.9,5.9l-40,69.3c-4.4,7.7-1.8,17.4,5.9,21.9c7.7,4.4,17.4,1.8,21.9-5.9l40-69.3   C226.3,339.5,223.7,329.7,216,325.3z"
       id="path23"
       style="fill:#005dc2;fill-opacity:1" /><path
       d="M416.4,330.1l-69.3-40c-7.7-4.4-17.4-1.8-21.9,5.9c-4.4,7.7-1.8,17.4,5.9,21.9l69.3,40c7.7,4.4,17.4,1.8,21.9-5.9   C426.7,344.3,424.1,334.6,416.4,330.1z"
       id="path25"
       style="fill:#005dc2;fill-opacity:1" /><path
       d="M95.6,181.9l69.3,40c7.7,4.4,17.4,1.8,21.9-5.9s1.8-17.4-5.9-21.9l-69.3-40c-7.7-4.4-17.4-1.8-21.9,5.9   C85.3,167.7,87.9,177.4,95.6,181.9z"
       id="path27"
       style="fill:#005dc2;fill-opacity:1" /></g></svg>