<?xml version="1.0" encoding="UTF-8" standalone="no"?>
<!-- Created with Inkscape (http://www.inkscape.org/) -->

<svg
   xmlns:dc="http://purl.org/dc/elements/1.1/"
   xmlns:cc="http://creativecommons.org/ns#"
   xmlns:rdf="http://www.w3.org/1999/02/22-rdf-syntax-ns#"
   xmlns:svg="http://www.w3.org/2000/svg"
   xmlns="http://www.w3.org/2000/svg"
   xmlns:sodipodi="http://sodipodi.sourceforge.net/DTD/sodipodi-0.dtd"
   xmlns:inkscape="http://www.inkscape.org/namespaces/inkscape"
   version="1.1"
   id="svg2"
   xml:space="preserve"
   width="108"
   height="108"
   viewBox="0 0 108 108"
   sodipodi:docname="skipjaq_logo_q.svg"
   inkscape:version="0.92.1 r15371"
   inkscape:export-filename="/home/cgfrost/Repos/skipjaq/loda-recorda/src/icons/icon-128.png"
   inkscape:export-xdpi="113.77778"
   inkscape:export-ydpi="113.77778"><metadata
     id="metadata8"><rdf:RDF><cc:Work
         rdf:about=""><dc:format>image/svg+xml</dc:format><dc:type
           rdf:resource="http://purl.org/dc/dcmitype/StillImage" /><dc:title></dc:title></cc:Work></rdf:RDF></metadata><defs
     id="defs6"><clipPath
       clipPathUnits="userSpaceOnUse"
       id="clipPath18"><path
         d="M 0,129.288 H 460.12 V 0 H 0 Z"
         id="path16"
         inkscape:connector-curvature="0" /></clipPath></defs><sodipodi:namedview
     pagecolor="#ffffff"
     bordercolor="#666666"
     borderopacity="1"
     objecttolerance="10"
     gridtolerance="10"
     guidetolerance="10"
     inkscape:pageopacity="0"
     inkscape:pageshadow="2"
     inkscape:window-width="1704"
     inkscape:window-height="692"
     id="namedview4"
     showgrid="false"
     inkscape:zoom="2.0016517"
     inkscape:cx="-172.651"
     inkscape:cy="60.357708"
     inkscape:window-x="57"
     inkscape:window-y="326"
     inkscape:window-maximized="0"
     inkscape:current-layer="g10"
     fit-margin-top="1"
     fit-margin-right="1"
     fit-margin-bottom="1"
     fit-margin-left="1" /><g
     id="g10"
     inkscape:groupmode="layer"
     inkscape:label="skipjaq_logo_r_rgb_02"
     transform="matrix(1.3333333,0,0,-1.3333333,-508.50062,139.43523)"><g
       id="g40"
       transform="matrix(0.9999939,0,0,0.9999939,427.96226,51.443759)"
       style="fill:#b20c43;fill-opacity:1;stroke:none"><path
         d="m 0,0 h -12.333 -5.227 -0.004 V 15.768 H -34.662 V -4.471 c 0,-1.551 0.294,-3.027 0.876,-4.422 0.582,-1.392 1.391,-2.605 2.428,-3.64 1.036,-1.04 2.252,-1.849 3.643,-2.431 1.393,-0.583 2.866,-0.871 4.422,-0.871 h 12.244 l 0.68,-0.392 5.249,-9.137 c 0.256,-0.449 0.644,-0.822 1.164,-1.116 0.52,-0.289 1.034,-0.435 1.556,-0.435 h 16.129 c 0.52,0 0.858,0.146 1.022,0.435 0.138,0.254 0.089,0.578 -0.085,0.951 z"
         style="fill:#b20c43;fill-opacity:1;fill-rule:nonzero;stroke:none"
         id="path42"
         inkscape:connector-curvature="0" /></g><g
       id="g44"
       transform="matrix(0.9999939,0,0,0.9999939,433.23783,67.211263)"
       style="fill:#6eb20c;fill-opacity:1"><path
         d="m 0,0 v -15.75 l 8.862,-15.431 c 0.542,0.151 1.076,0.32 1.582,0.547 1.329,0.582 2.493,1.391 3.503,2.431 0.999,1.031 1.795,2.231 2.377,3.595 0.584,1.356 0.876,2.818 0.876,4.369 L 17.2,0 Z"
         style="fill:#6eb20c;fill-opacity:1;fill-rule:nonzero;stroke:none"
         id="path46"
         inkscape:connector-curvature="0" /></g><g
       id="g48"
       transform="matrix(0.9999939,0,0,0.9999939,410.39837,72.443331)"
       style="fill:#e6b600;fill-opacity:1"><path
         d="m 0,0 v 31.181 h -5.729 c -1.556,0 -3.029,-0.308 -4.422,-0.925 -1.391,-0.615 -2.607,-1.424 -3.642,-2.429 -1.038,-1.004 -1.847,-2.203 -2.429,-3.595 -0.582,-1.393 -0.876,-2.867 -0.876,-4.42 V 0 Z"
         style="fill:#e6b600;fill-opacity:1;fill-rule:nonzero;stroke:none"
         id="path50"
         inkscape:connector-curvature="0" /></g><g
       id="g52"
       transform="matrix(0.9999939,0,0,0.9999939,433.23783,72.443331)"
       style="fill:#0095db;fill-opacity:1"><path
         d="m 0,0 h 17.2 v 19.812 c 0,1.553 -0.307,3.027 -0.925,4.42 -0.618,1.392 -1.426,2.591 -2.429,3.595 -1.004,1.005 -2.202,1.814 -3.593,2.429 -1.395,0.617 -2.866,0.925 -4.422,0.925 h -23.44 V 14.662 H 0 Z"
         style="fill:#0095db;fill-opacity:1;fill-rule:nonzero;stroke:none"
         id="path54"
         inkscape:connector-curvature="0" /></g></g></svg>