<?xml version="1.0" encoding="UTF-8" standalone="no"?>
<!-- Created with Inkscape (http://www.inkscape.org/) -->

<svg
   xmlns:dc="http://purl.org/dc/elements/1.1/"
   xmlns:cc="http://creativecommons.org/ns#"
   xmlns:rdf="http://www.w3.org/1999/02/22-rdf-syntax-ns#"
   xmlns:svg="http://www.w3.org/2000/svg"
   xmlns="http://www.w3.org/2000/svg"
   xmlns:sodipodi="http://sodipodi.sourceforge.net/DTD/sodipodi-0.dtd"
   xmlns:inkscape="http://www.inkscape.org/namespaces/inkscape"
   version="1.1"
   id="svg2"
   xml:space="preserve"
   width="613.49335"
   height="172.384"
   viewBox="0 0 613.49335 172.384"
   sodipodi:docname="skipjaq_logo.svg"
   inkscape:version="0.92.1 r15371"
   inkscape:export-filename="/home/cgfrost/Downloads/logo/skipjaq_logo.png"
   inkscape:export-xdpi="96"
   inkscape:export-ydpi="96"><metadata
     id="metadata8"><rdf:RDF><cc:Work
         rdf:about=""><dc:format>image/svg+xml</dc:format><dc:type
           rdf:resource="http://purl.org/dc/dcmitype/StillImage" /><dc:title /></cc:Work></rdf:RDF></metadata><defs
     id="defs6"><clipPath
       clipPathUnits="userSpaceOnUse"
       id="clipPath18"><path
         d="M 0,129.288 H 460.12 V 0 H 0 Z"
         id="path16"
         inkscape:connector-curvature="0" /></clipPath></defs><sodipodi:namedview
     pagecolor="#ffffff"
     bordercolor="#666666"
     borderopacity="1"
     objecttolerance="10"
     gridtolerance="10"
     guidetolerance="10"
     inkscape:pageopacity="0"
     inkscape:pageshadow="2"
     inkscape:window-width="1583"
     inkscape:window-height="966"
     id="namedview4"
     showgrid="false"
     inkscape:zoom="2.0016517"
     inkscape:cx="283.64273"
     inkscape:cy="111.77644"
     inkscape:window-x="10"
     inkscape:window-y="34"
     inkscape:window-maximized="0"
     inkscape:current-layer="g10" /><g
     id="g10"
     inkscape:groupmode="layer"
     inkscape:label="skipjaq_logo_r_rgb_02"
     transform="matrix(1.3333333,0,0,-1.3333333,0,172.384)"><g
       id="g20"
       transform="translate(60.2273,74.4833)"
       style="fill:#333e48;fill-opacity:1"><path
         d="m 0,0 c 1.392,-0.584 2.59,-1.392 3.596,-2.429 1.003,-1.037 1.811,-2.233 2.429,-3.593 0.613,-1.362 0.923,-2.82 0.923,-4.374 v -18.269 c 0,-1.556 -0.31,-3.027 -0.923,-4.422 -0.618,-1.392 -1.426,-2.609 -2.429,-3.64 -1.006,-1.04 -2.204,-1.849 -3.596,-2.431 -1.394,-0.583 -2.867,-0.876 -4.421,-0.876 h -38.77 c -1.233,0 -1.848,0.613 -1.848,1.849 v 11.755 c 0,0.516 0.179,0.956 0.535,1.311 0.355,0.356 0.791,0.538 1.313,0.538 h 33.037 c 0.517,0 0.954,0.16 1.311,0.485 0.355,0.324 0.535,0.742 0.535,1.262 v 8.065 c 0,0.516 -0.18,0.954 -0.535,1.311 -0.357,0.356 -0.794,0.534 -1.311,0.534 H -33.67 c -1.555,0 -3.028,0.293 -4.422,0.875 -1.393,0.582 -2.606,1.394 -3.642,2.429 -1.038,1.036 -1.846,2.236 -2.43,3.598 -0.584,1.36 -0.875,2.815 -0.875,4.37 v 18.268 c 0,1.555 0.291,3.028 0.875,4.421 0.584,1.393 1.392,2.59 2.43,3.596 1.036,1.004 2.249,1.813 3.642,2.429 1.394,0.615 2.867,0.923 4.422,0.923 H 2.963 c 1.23,0 1.847,-0.617 1.847,-1.845 V 14.187 c 0,-0.52 -0.179,-0.94 -0.535,-1.263 C 3.919,12.599 3.481,12.438 2.963,12.438 h -30.997 c -0.519,0 -0.94,-0.18 -1.263,-0.534 -0.325,-0.358 -0.486,-0.795 -0.486,-1.313 V 2.722 c 0,-0.52 0.161,-0.958 0.486,-1.313 0.323,-0.356 0.744,-0.533 1.263,-0.533 H -4.421 C -2.867,0.876 -1.394,0.584 0,0"
         style="fill:#333e48;fill-opacity:1;fill-rule:nonzero;stroke:none"
         id="path22"
         inkscape:connector-curvature="0" /></g><g
       id="g24"
       transform="translate(116.0656,73.8034)"
       style="fill:#333e48;fill-opacity:1"><path
         d="m 0,0 -0.096,-0.68 22.738,-37.119 c 0.258,-0.453 0.291,-0.826 0.097,-1.115 -0.195,-0.293 -0.552,-0.44 -1.068,-0.44 H 5.54 c -0.519,0 -1.038,0.147 -1.555,0.44 -0.52,0.289 -0.909,0.662 -1.166,1.115 l -14.672,26.528 -0.487,0.098 -8.065,-8.843 c -0.325,-0.325 -0.599,-0.796 -0.827,-1.409 -0.226,-0.618 -0.339,-1.183 -0.339,-1.703 v -14.377 c 0,-1.236 -0.617,-1.849 -1.846,-1.849 h -13.409 c -1.231,0 -1.848,0.613 -1.848,1.849 V 26.82 c 0,1.228 0.617,1.845 1.848,1.845 h 13.409 c 1.229,0 1.846,-0.617 1.846,-1.845 V -2.041 L 3.5,27.305 c 0.322,0.388 0.777,0.712 1.36,0.971 0.582,0.259 1.132,0.389 1.651,0.389 h 16.131 c 0.518,0 0.825,-0.13 0.922,-0.389 0.098,-0.259 -0.016,-0.583 -0.34,-0.971 z"
         style="fill:#333e48;fill-opacity:1;fill-rule:nonzero;stroke:none"
         id="path26"
         inkscape:connector-curvature="0" /></g><g
       id="g28"
       transform="translate(166.1648,36.2982)"
       style="fill:#333e48;fill-opacity:1"><path
         d="m 0,0 c 0,-1.235 -0.617,-1.849 -1.847,-1.849 h -13.408 c -1.231,0 -1.847,0.614 -1.847,1.849 v 64.325 c 0,1.229 0.616,1.845 1.847,1.845 H -1.847 C -0.617,66.17 0,65.554 0,64.325 Z"
         style="fill:#333e48;fill-opacity:1;fill-rule:nonzero;stroke:none"
         id="path30"
         inkscape:connector-curvature="0" /></g><path
       d="M 214.611,87.02 H 195.662 V 69.821 h 18.949 z m 5.15,15.448 c 1.553,0 3.026,-0.307 4.422,-0.923 1.391,-0.615 2.589,-1.424 3.595,-2.429 1.005,-1.005 1.814,-2.203 2.429,-3.595 0.616,-1.393 0.923,-2.867 0.923,-4.421 V 65.35 c 0,-1.555 -0.307,-3.029 -0.923,-4.422 -0.615,-1.396 -1.424,-2.591 -2.429,-3.596 -1.006,-1.004 -2.204,-1.813 -3.595,-2.428 -1.396,-0.616 -2.869,-0.922 -4.422,-0.922 h -21.668 c -0.52,0 -0.959,-0.164 -1.313,-0.488 -0.357,-0.325 -0.534,-0.743 -0.534,-1.263 V 36.298 c 0,-1.235 -0.617,-1.849 -1.846,-1.849 h -13.41 c -1.231,0 -1.845,0.614 -1.845,1.849 v 64.325 c 0,1.229 0.614,1.845 1.845,1.845 z"
       style="fill:#333e48;fill-opacity:1;fill-rule:nonzero;stroke:none"
       id="path32"
       inkscape:connector-curvature="0" /><g
       id="g34"
       transform="translate(290.4933,101.9353)"
       style="fill:#333e48;fill-opacity:1"><path
         d="m 0,0 c 0.355,-0.358 0.533,-0.796 0.533,-1.312 v -54.805 c 0,-1.556 -0.309,-3.027 -0.922,-4.422 -0.618,-1.391 -1.429,-2.609 -2.429,-3.64 -1.004,-1.04 -2.204,-1.849 -3.597,-2.431 -1.394,-0.583 -2.867,-0.876 -4.42,-0.876 h -29.249 c -1.555,0 -3.029,0.293 -4.422,0.876 -1.391,0.582 -2.609,1.391 -3.642,2.431 -1.038,1.031 -1.847,2.249 -2.429,3.64 -0.585,1.395 -0.876,2.866 -0.876,4.422 v 20.794 c 0,1.231 0.614,1.849 1.845,1.849 h 13.413 c 1.226,0 1.844,-0.618 1.844,-1.849 v -13.896 c 0,-0.516 0.178,-0.938 0.534,-1.263 0.355,-0.324 0.795,-0.484 1.311,-0.484 h 14.091 c 0.517,0 0.955,0.16 1.313,0.484 0.353,0.325 0.533,0.747 0.533,1.263 v 47.907 c 0,0.516 0.16,0.954 0.485,1.312 0.324,0.354 0.746,0.533 1.262,0.533 H -1.311 C -0.796,0.533 -0.36,0.354 0,0"
         style="fill:#333e48;fill-opacity:1;fill-rule:nonzero;stroke:none"
         id="path36"
         inkscape:connector-curvature="0" /></g><path
       d="M 341.666,87.214 H 318.831 V 70.111 h 22.835 z m 5.831,15.254 c 1.555,0 3.027,-0.307 4.422,-0.923 1.391,-0.615 2.591,-1.424 3.595,-2.429 1.003,-1.005 1.814,-2.203 2.432,-3.595 0.613,-1.393 0.92,-2.867 0.92,-4.421 V 36.298 c 0,-0.52 -0.178,-0.96 -0.534,-1.315 -0.355,-0.356 -0.795,-0.534 -1.311,-0.534 h -13.506 c -0.52,0 -0.958,0.178 -1.314,0.534 -0.357,0.355 -0.535,0.795 -0.535,1.315 v 17.391 c 0,0.516 -0.16,0.955 -0.485,1.312 -0.324,0.356 -0.744,0.536 -1.262,0.536 h -19.242 c -0.518,0 -0.953,-0.18 -1.309,-0.536 -0.36,-0.357 -0.537,-0.796 -0.537,-1.312 V 36.298 c 0,-1.235 -0.616,-1.849 -1.845,-1.849 h -13.409 c -1.231,0 -1.846,0.614 -1.846,1.849 V 91.1 c 0,1.554 0.291,3.028 0.873,4.421 0.587,1.392 1.396,2.59 2.429,3.595 1.038,1.005 2.251,1.814 3.647,2.429 1.391,0.616 2.866,0.923 4.417,0.923 z"
       style="fill:#333e48;fill-opacity:1;fill-rule:nonzero;stroke:none"
       id="path38"
       inkscape:connector-curvature="0" /><g
       id="g40"
       transform="translate(404.8561,50.2893)"
       style="fill:#b20c43;fill-opacity:1;stroke:none"><path
         d="m 0,0 h -12.333 -5.227 -0.004 V 15.768 H -34.662 V -4.471 c 0,-1.551 0.294,-3.027 0.876,-4.422 0.582,-1.392 1.391,-2.605 2.428,-3.64 1.036,-1.04 2.252,-1.849 3.643,-2.431 1.393,-0.583 2.866,-0.871 4.422,-0.871 h 12.244 l 0.68,-0.392 5.249,-9.137 c 0.256,-0.449 0.644,-0.822 1.164,-1.116 0.52,-0.289 1.034,-0.435 1.556,-0.435 h 16.129 c 0.52,0 0.858,0.146 1.022,0.435 0.138,0.254 0.089,0.578 -0.085,0.951 z"
         style="fill:#b20c43;fill-opacity:1;fill-rule:nonzero;stroke:none"
         id="path42"
         inkscape:connector-curvature="0" /></g><g
       id="g44"
       transform="translate(410.1317,66.0569)"
       style="fill:#6eb20c;fill-opacity:1"><path
         d="m 0,0 v -15.75 l 8.862,-15.431 c 0.542,0.151 1.076,0.32 1.582,0.547 1.329,0.582 2.493,1.391 3.503,2.431 0.999,1.031 1.795,2.231 2.377,3.595 0.584,1.356 0.876,2.818 0.876,4.369 L 17.2,0 Z"
         style="fill:#6eb20c;fill-opacity:1;fill-rule:nonzero;stroke:none"
         id="path46"
         inkscape:connector-curvature="0" /></g><g
       id="g48"
       transform="translate(387.2921,71.289)"
       style="fill:#e6b600;fill-opacity:1"><path
         d="m 0,0 v 31.181 h -5.729 c -1.556,0 -3.029,-0.308 -4.422,-0.925 -1.391,-0.615 -2.607,-1.424 -3.642,-2.429 -1.038,-1.004 -1.847,-2.203 -2.429,-3.595 -0.582,-1.393 -0.876,-2.867 -0.876,-4.42 V 0 Z"
         style="fill:#e6b600;fill-opacity:1;fill-rule:nonzero;stroke:none"
         id="path50"
         inkscape:connector-curvature="0" /></g><g
       id="g52"
       transform="translate(410.1317,71.289)"
       style="fill:#0095db;fill-opacity:1"><path
         d="m 0,0 h 17.2 v 19.812 c 0,1.553 -0.307,3.027 -0.925,4.42 -0.618,1.392 -1.426,2.591 -2.429,3.595 -1.004,1.005 -2.202,1.814 -3.593,2.429 -1.395,0.617 -2.866,0.925 -4.422,0.925 h -23.44 V 14.662 H 0 Z"
         style="fill:#0095db;fill-opacity:1;fill-rule:nonzero;stroke:none"
         id="path54"
         inkscape:connector-curvature="0" /></g><g
       id="g56"
       transform="translate(433.7155,100.9763)"
       style="fill:#333e48;fill-opacity:1"><path
         d="M 0,0 H 0.798 C 1.05,0 1.265,0.024 1.441,0.072 1.618,0.12 1.76,0.189 1.868,0.281 1.975,0.373 2.053,0.486 2.102,0.619 2.15,0.751 2.174,0.905 2.174,1.079 2.174,1.25 2.152,1.398 2.108,1.527 2.065,1.655 1.994,1.76 1.896,1.843 1.797,1.926 1.667,1.987 1.507,2.029 1.346,2.07 1.147,2.09 0.908,2.09 H 0 Z M 0,-0.785 V -3.22 h -1.073 v 6.137 h 1.981 c 0.789,0 1.374,-0.144 1.755,-0.43 C 3.043,2.2 3.234,1.777 3.234,1.217 3.234,0.786 3.11,0.419 2.865,0.116 2.62,-0.186 2.254,-0.395 1.768,-0.509 1.846,-0.555 1.914,-0.612 1.971,-0.682 2.029,-0.75 2.083,-0.831 2.133,-0.923 L 3.702,-3.22 H 2.683 c -0.151,0 -0.263,0.057 -0.337,0.172 l -1.383,2.077 c -0.041,0.06 -0.091,0.105 -0.148,0.138 -0.057,0.032 -0.145,0.048 -0.264,0.048 z m -3.343,0.619 c 0,-0.408 0.05,-0.8 0.151,-1.176 0.101,-0.376 0.245,-0.728 0.433,-1.056 0.188,-0.328 0.413,-0.625 0.675,-0.89 0.261,-0.267 0.552,-0.495 0.874,-0.686 0.32,-0.19 0.667,-0.337 1.039,-0.44 0.37,-0.103 0.758,-0.154 1.162,-0.154 0.606,0 1.172,0.114 1.703,0.343 0.53,0.23 0.99,0.542 1.382,0.94 0.393,0.396 0.702,0.862 0.929,1.396 0.227,0.534 0.34,1.109 0.34,1.723 0,0.409 -0.051,0.803 -0.154,1.184 C 5.088,1.398 4.942,1.752 4.754,2.08 4.566,2.408 4.34,2.707 4.076,2.978 3.813,3.249 3.52,3.479 3.199,3.669 2.878,3.86 2.53,4.007 2.156,4.114 1.783,4.219 1.394,4.272 0.991,4.272 0.385,4.272 -0.181,4.155 -0.709,3.924 -1.236,3.693 -1.694,3.376 -2.084,2.975 -2.474,2.573 -2.781,2.104 -3.006,1.564 -3.23,1.026 -3.343,0.449 -3.343,-0.166 m -0.688,0 c 0,0.464 0.06,0.909 0.179,1.338 0.119,0.429 0.288,0.83 0.505,1.204 0.219,0.374 0.481,0.713 0.789,1.019 0.306,0.304 0.646,0.568 1.017,0.787 0.372,0.221 0.771,0.39 1.197,0.509 0.427,0.119 0.871,0.18 1.335,0.18 C 1.454,4.871 1.9,4.81 2.329,4.691 2.758,4.572 3.158,4.403 3.529,4.182 3.901,3.963 4.24,3.699 4.547,3.395 4.855,3.089 5.117,2.75 5.335,2.376 5.552,2.002 5.722,1.601 5.84,1.172 5.96,0.743 6.019,0.298 6.019,-0.166 6.019,-0.625 5.96,-1.068 5.84,-1.497 5.722,-1.926 5.552,-2.326 5.335,-2.697 5.117,-3.069 4.855,-3.407 4.547,-3.712 4.24,-4.017 3.901,-4.279 3.529,-4.5 3.158,-4.719 2.758,-4.89 2.329,-5.008 1.9,-5.128 1.454,-5.187 0.991,-5.187 c -0.464,0 -0.908,0.059 -1.335,0.179 -0.426,0.118 -0.825,0.289 -1.197,0.508 -0.371,0.221 -0.711,0.483 -1.017,0.788 -0.308,0.305 -0.57,0.643 -0.789,1.015 -0.217,0.371 -0.386,0.77 -0.505,1.197 -0.119,0.426 -0.179,0.871 -0.179,1.334"
         style="fill:#333e48;fill-opacity:1;fill-rule:nonzero;stroke:none"
         id="path58"
         inkscape:connector-curvature="0" /></g></g></svg>