<?xml version="1.0" encoding="UTF-8" standalone="no"?>
<!-- Generator: Adobe Illustrator 16.2.1, SVG Export Plug-In . SVG Version: 6.00 Build 0)  -->

<svg
   xmlns:dc="http://purl.org/dc/elements/1.1/"
   xmlns:cc="http://creativecommons.org/ns#"
   xmlns:rdf="http://www.w3.org/1999/02/22-rdf-syntax-ns#"
   xmlns:svg="http://www.w3.org/2000/svg"
   xmlns="http://www.w3.org/2000/svg"
   xmlns:sodipodi="http://sodipodi.sourceforge.net/DTD/sodipodi-0.dtd"
   xmlns:inkscape="http://www.inkscape.org/namespaces/inkscape"
   version="1.1"
   id="Layer_1"
   x="0px"
   y="0px"
   width="546.13336"
   height="546.13336"
   viewBox="0 0 512 512"
   xml:space="preserve"
   inkscape:version="0.92.1 r15371"
   sodipodi:docname="gear-white.svg"><metadata
     id="metadata11"><rdf:RDF><cc:Work
         rdf:about=""><dc:format>image/svg+xml</dc:format><dc:type
           rdf:resource="http://purl.org/dc/dcmitype/StillImage" /><dc:title></dc:title></cc:Work></rdf:RDF></metadata><defs
     id="defs9" /><sodipodi:namedview
     pagecolor="#ffffff"
     bordercolor="#666666"
     borderopacity="1"
     objecttolerance="10"
     gridtolerance="10"
     guidetolerance="10"
     inkscape:pageopacity="0"
     inkscape:pageshadow="2"
     inkscape:window-width="2067"
     inkscape:window-height="1049"
     id="namedview7"
     showgrid="false"
     inkscape:zoom="0.4609375"
     inkscape:cx="256"
     inkscape:cy="256"
     inkscape:window-x="10"
     inkscape:window-y="34"
     inkscape:window-maximized="0"
     inkscape:current-layer="Layer_1" /><g
     id="g3"
     style="fill:#ffffff;fill-opacity:1"><path
       d="m 411.1,256 c 0,-23.9 14.8,-42.8 36.9,-55.8 -4,-13.3 -9.3,-26.2 -15.8,-38.2 -24.9,6.5 -45,-3.2 -62,-20.2 -16.9,-16.9 -22.1,-37.1 -15.6,-62 -12,-6.5 -24.8,-11.8 -38.2,-15.8 -13,22.2 -36.4,36.9 -60.4,36.9 -23.9,0 -47.4,-14.7 -60.4,-36.9 -13.4,4 -26.2,9.3 -38.2,15.8 6.5,24.9 1.3,45 -15.6,62 -16.9,16.9 -37.1,26.7 -61.9,20.2 -6.6,12 -11.9,24.8 -15.9,38.2 22.2,13 37,31.9 37,55.8 0,23.9 -14.8,47.4 -37,60.4 4,13.4 9.3,26.2 15.8,38.2 24.9,-6.5 45,-1.3 61.9,15.6 17,16.9 22.1,37.1 15.6,62 12.1,6.5 24.8,11.8 38.2,15.8 13,-22.2 36.5,-36.9 60.4,-36.9 23.9,0 47.4,14.7 60.4,36.9 13.4,-4 26.2,-9.3 38.2,-15.8 -6.5,-24.9 -1.3,-45 15.6,-62 16.9,-16.9 37.1,-26.7 62,-20.2 6.5,-12.1 11.8,-24.9 15.8,-38.2 -22.1,-13 -36.8,-31.9 -36.8,-55.8 z M 256,354.3 c -54.2,0 -98.3,-44 -98.3,-98.3 0,-54.3 44,-98.3 98.3,-98.3 54.3,0 98.3,44 98.3,98.3 0,54.3 -44,98.3 -98.3,98.3 z"
       id="path5"
       style="fill:#ffffff;fill-opacity:1"
       inkscape:connector-curvature="0" /></g></svg>