<?xml version="1.0" encoding="UTF-8" standalone="no"?>
<!-- Generator: Adobe Illustrator 16.2.1, SVG Export Plug-In . SVG Version: 6.00 Build 0)  -->

<svg
   xmlns:dc="http://purl.org/dc/elements/1.1/"
   xmlns:cc="http://creativecommons.org/ns#"
   xmlns:rdf="http://www.w3.org/1999/02/22-rdf-syntax-ns#"
   xmlns:svg="http://www.w3.org/2000/svg"
   xmlns="http://www.w3.org/2000/svg"
   xmlns:xlink="http://www.w3.org/1999/xlink"
   xmlns:sodipodi="http://sodipodi.sourceforge.net/DTD/sodipodi-0.dtd"
   xmlns:inkscape="http://www.inkscape.org/namespaces/inkscape"
   version="1.1"
   id="Layer_1"
   x="0px"
   y="0px"
   width="512px"
   height="512px"
   viewBox="0 0 512 512"
   xml:space="preserve"
   inkscape:version="0.91 r13725"
   sodipodi:docname="plus-round.svg"><metadata
     id="metadata9"><rdf:RDF><cc:Work
         rdf:about=""><dc:format>image/svg+xml</dc:format><dc:type
           rdf:resource="http://purl.org/dc/dcmitype/StillImage" /><dc:title></dc:title></cc:Work></rdf:RDF></metadata><defs
     id="defs7"><color-profile
       name="sRGB-IEC61966-2.1"
       xlink:href="/System/Library/ColorSync/Profiles/sRGB Profile.icc"
       id="color-profile4133" /></defs><sodipodi:namedview
     pagecolor="#ffffff"
     bordercolor="#666666"
     borderopacity="1"
     objecttolerance="10"
     gridtolerance="10"
     guidetolerance="10"
     inkscape:pageopacity="0"
     inkscape:pageshadow="2"
     inkscape:window-width="1112"
     inkscape:window-height="733"
     id="namedview5"
     showgrid="false"
     inkscape:zoom="0.4609375"
     inkscape:cx="79.186443"
     inkscape:cy="256"
     inkscape:window-x="0"
     inkscape:window-y="0"
     inkscape:window-maximized="0"
     inkscape:current-layer="Layer_1" /><path
     d="M417.4,224H288V94.6c0-16.9-14.3-30.6-32-30.6c-17.7,0-32,13.7-32,30.6V224H94.6C77.7,224,64,238.3,64,256  c0,17.7,13.7,32,30.6,32H224v129.4c0,16.9,14.3,30.6,32,30.6c17.7,0,32-13.7,32-30.6V288h129.4c16.9,0,30.6-14.3,30.6-32  C448,238.3,434.3,224,417.4,224z"
     id="path3"
     style="fill:#005dc2;fill-opacity:1" /></svg>
